<svg width="24" height="24" viewBox="0 0 24 24" xmlns="http://www.w3.org/2000/svg">
    <path d="M12.009 16.502c-1.986.004-3.6-1.642-3.603-3.677-.004-2.035 1.603-3.687 3.59-3.691 1.985-.004 3.598 1.642 3.602 3.677.004 2.035-1.603 3.687-3.59 3.691m-.01-9.002c-2.872.006-5.196 2.391-5.19 5.328.005 2.937 2.338 5.314 5.21 5.308 2.872-.005 5.196-2.39 5.19-5.328-.005-2.937-2.338-5.314-5.21-5.308M18.8 21H5.2C3.433 21 2 19.535 2 17.727v-9C2 6.92 3.433 5.455 5.2 5.455h.4c.768 0 1.505-.313 2.048-.868l.703-.72A2.867 2.867 0 0 1 10.4 3h3.2c.768 0 1.505.313 2.048.868l.703.719c.543.555 1.28.868 2.049.868h.4c1.767 0 3.2 1.465 3.2 3.272v9C22 19.535 20.567 21 18.8 21" fill="#C0392B" fill-rule="evenodd"/>
</svg>
