<svg width="24" height="24" viewBox="0 0 24 24" xmlns="http://www.w3.org/2000/svg">
    <path d="M22 12c0-1.343-1.278-2.481-3.046-2.88.968-1.533 1.067-3.241.117-4.191-.95-.95-2.658-.85-4.19.117C14.48 3.278 13.342 2 12 2c-1.343 0-2.481 1.278-2.88 3.046-1.533-.968-3.241-1.067-4.191-.117-.95.95-.85 2.658.117 4.19C3.278 9.52 2 10.658 2 12c0 1.343 1.278 2.481 3.046 2.88-.968 1.533-1.067 3.241-.117 4.191.95.95 2.658.85 4.19-.117C9.52 20.722 10.658 22 12 22c1.343 0 2.481-1.278 2.88-3.046 1.533.968 3.241 1.067 4.191.117.95-.95.85-2.658-.117-4.19C20.722 14.48 22 13.342 22 12zm-10 2.79a2.79 2.79 0 1 1 0-5.58 2.79 2.79 0 0 1 0 5.58z" fill="#C0392B" fill-rule="evenodd"/>
</svg>
