<svg width="24" height="24" viewBox="0 0 24 24" xmlns="http://www.w3.org/2000/svg">
    <path d="M7.91 5.636a2.273 2.273 0 1 0-.001 4.546 2.273 2.273 0 0 0 0-4.546m11.944 9.516-4.91-2.455a6.584 6.584 0 0 0-5.886 0l-4.91 2.455a.228.228 0 0 1-.329-.204V5.636c0-1.004.814-1.818 1.818-1.818h12.728c1.004 0 1.818.814 1.818 1.818v9.312c0 .17-.178.28-.33.204M18.365 2H5.636A3.636 3.636 0 0 0 2 5.636v12.728A3.636 3.636 0 0 0 5.636 22h12.728A3.637 3.637 0 0 0 22 18.364V5.636A3.637 3.637 0 0 0 18.364 2" fill="#C0392B" fill-rule="evenodd"/>
</svg>
